<svg width="126" height="21" viewBox="0 0 126 21" fill="none" xmlns="http://www.w3.org/2000/svg">
<path d="M10.284 18.128H9.81604C9.67738 18.4227 9.50404 18.7087 9.29604 18.986C9.10538 19.246 8.84538 19.48 8.51604 19.688C8.20404 19.896 7.82271 20.0607 7.37204 20.182C6.93871 20.3033 6.41004 20.364 5.78604 20.364C4.98871 20.364 4.24338 20.2253 3.55004 19.948C2.87404 19.6533 2.27604 19.2287 1.75604 18.674C1.25338 18.102 0.85471 17.4087 0.560043 16.594C0.28271 15.7793 0.144043 14.8433 0.144043 13.786V13.318C0.144043 12.278 0.291376 11.3507 0.586043 10.536C0.898043 9.72135 1.31404 9.03668 1.83404 8.48201C2.37138 7.91001 2.98671 7.47668 3.68004 7.18201C4.39071 6.88734 5.13604 6.74001 5.91604 6.74001C6.95604 6.74001 7.77938 6.93934 8.38604 7.33801C8.99271 7.71934 9.46938 8.26535 9.81604 8.97601H10.284V1.80001H13.56V20H10.284V18.128ZM6.85204 17.244C7.87471 17.244 8.69804 16.9233 9.32204 16.282C9.96338 15.6233 10.284 14.7653 10.284 13.708V13.396C10.284 12.3387 9.96338 11.4893 9.32204 10.848C8.69804 10.1893 7.87471 9.86001 6.85204 9.86001C5.82938 9.86001 4.99738 10.1807 4.35604 10.822C3.73204 11.446 3.42004 12.304 3.42004 13.396V13.708C3.42004 14.8 3.73204 15.6667 4.35604 16.308C4.99738 16.932 5.82938 17.244 6.85204 17.244Z" fill="white"/>
<path d="M19.834 14.618C19.8513 14.9993 19.938 15.3547 20.094 15.684C20.2673 15.996 20.4926 16.2733 20.77 16.516C21.0646 16.7413 21.394 16.9233 21.758 17.062C22.1393 17.1833 22.538 17.244 22.954 17.244C23.7686 17.244 24.3926 17.1053 24.826 16.828C25.2593 16.5333 25.5713 16.1867 25.762 15.788L28.57 17.348C28.414 17.6773 28.1973 18.024 27.92 18.388C27.6426 18.7347 27.2786 19.0553 26.828 19.35C26.3946 19.6447 25.8573 19.8873 25.216 20.078C24.592 20.2687 23.8553 20.364 23.006 20.364C22.0353 20.364 21.1513 20.208 20.354 19.896C19.5566 19.584 18.8633 19.1333 18.274 18.544C17.702 17.9547 17.2513 17.2353 16.922 16.386C16.61 15.5367 16.454 14.5747 16.454 13.5V13.344C16.454 12.356 16.6186 11.4547 16.948 10.64C17.2946 9.82535 17.7626 9.13201 18.352 8.56001C18.9413 7.98801 19.626 7.54601 20.406 7.23401C21.2033 6.90468 22.0526 6.74001 22.954 6.74001C24.0633 6.74001 25.0166 6.93934 25.814 7.33801C26.6113 7.71934 27.27 8.21334 27.79 8.82001C28.31 9.40935 28.6913 10.068 28.934 10.796C29.1766 11.5067 29.298 12.2 29.298 12.876V14.618H19.834ZM22.928 9.70401C22.096 9.70401 21.42 9.92068 20.9 10.354C20.38 10.77 20.042 11.2553 19.886 11.81H25.97C25.866 11.2033 25.5366 10.7007 24.982 10.302C24.4446 9.90335 23.76 9.70401 22.928 9.70401Z" fill="white"/>
<path d="M31.9579 7.10401H35.4939L38.5359 18.44H39.0039L42.0459 7.10401H45.5819L41.8899 20H35.6499L31.9579 7.10401Z" fill="white"/>
<path d="M56.7438 3.25601C56.7438 2.92668 56.8045 2.61468 56.9258 2.32001C57.0645 2.00801 57.2465 1.74801 57.4718 1.54001C57.6971 1.31468 57.9571 1.14134 58.2518 1.02001C58.5465 0.881345 58.8671 0.812012 59.2138 0.812012C59.8898 0.812012 60.4618 1.05468 60.9298 1.54001C61.4151 2.00801 61.6578 2.58001 61.6578 3.25601C61.6578 3.60268 61.5885 3.92334 61.4498 4.21801C61.3285 4.51268 61.1551 4.77268 60.9298 4.99801C60.7218 5.22335 60.4618 5.40535 60.1498 5.54401C59.8551 5.66534 59.5431 5.72601 59.2138 5.72601C58.8671 5.72601 58.5465 5.66534 58.2518 5.54401C57.9571 5.40535 57.6971 5.22335 57.4718 4.99801C57.2465 4.77268 57.0645 4.51268 56.9258 4.21801C56.8045 3.92334 56.7438 3.60268 56.7438 3.25601ZM47.3838 7.10401H50.4258V4.45201C50.4258 3.70668 50.6771 3.08268 51.1798 2.58001C51.6825 2.06001 52.3065 1.80001 53.0518 1.80001H55.4958V4.92001H54.4038C53.9358 4.92001 53.7018 5.18001 53.7018 5.70001V7.10401H60.8518V20H57.5758V10.224H53.7018V20H50.4258V10.224H47.3838V7.10401Z" fill="white"/>
<path d="M67.9837 20H64.7077V7.10401H67.9837V9.02801H68.4517C68.7464 8.30001 69.2231 7.73668 69.8817 7.33801C70.5404 6.93934 71.3117 6.74001 72.1957 6.74001C72.8197 6.74001 73.4004 6.84401 73.9377 7.05201C74.4924 7.24268 74.9777 7.54601 75.3937 7.96201C75.8097 8.37801 76.1304 8.90668 76.3557 9.54801C76.5984 10.1893 76.7197 10.952 76.7197 11.836V20H73.4437V12.668C73.4437 11.7493 73.2184 11.03 72.7677 10.51C72.3344 9.97268 71.7017 9.70401 70.8697 9.70401C69.8991 9.70401 69.1711 10.0333 68.6857 10.692C68.2177 11.3333 67.9837 12.2 67.9837 13.292V20Z" fill="white"/>
<path d="M89.8837 18.128H89.4157C89.277 18.4227 89.1037 18.7087 88.8957 18.986C88.705 19.246 88.445 19.48 88.1157 19.688C87.8037 19.896 87.4223 20.0607 86.9717 20.182C86.5383 20.3033 86.0097 20.364 85.3857 20.364C84.5883 20.364 83.843 20.2253 83.1497 19.948C82.4737 19.6533 81.8757 19.2287 81.3557 18.674C80.853 18.102 80.4543 17.4087 80.1597 16.594C79.8823 15.7793 79.7437 14.8433 79.7437 13.786V13.318C79.7437 12.278 79.891 11.3507 80.1857 10.536C80.4977 9.72135 80.9137 9.03668 81.4337 8.48201C81.971 7.91001 82.5863 7.47668 83.2797 7.18201C83.9903 6.88734 84.7357 6.74001 85.5157 6.74001C86.5557 6.74001 87.379 6.93934 87.9857 7.33801C88.5923 7.71934 89.069 8.26535 89.4157 8.97601H89.8837V1.80001H93.1597V20H89.8837V18.128ZM86.4517 17.244C87.4743 17.244 88.2977 16.9233 88.9217 16.282C89.563 15.6233 89.8837 14.7653 89.8837 13.708V13.396C89.8837 12.3387 89.563 11.4893 88.9217 10.848C88.2977 10.1893 87.4743 9.86001 86.4517 9.86001C85.429 9.86001 84.597 10.1807 83.9557 10.822C83.3317 11.446 83.0197 12.304 83.0197 13.396V13.708C83.0197 14.8 83.3317 15.6667 83.9557 16.308C84.597 16.932 85.429 17.244 86.4517 17.244Z" fill="white"/>
<path d="M99.4336 14.618C99.4509 14.9993 99.5376 15.3547 99.6936 15.684C99.8669 15.996 100.092 16.2733 100.37 16.516C100.664 16.7413 100.994 16.9233 101.358 17.062C101.739 17.1833 102.138 17.244 102.554 17.244C103.368 17.244 103.992 17.1053 104.426 16.828C104.859 16.5333 105.171 16.1867 105.362 15.788L108.17 17.348C108.014 17.6773 107.797 18.024 107.52 18.388C107.242 18.7347 106.878 19.0553 106.428 19.35C105.994 19.6447 105.457 19.8873 104.816 20.078C104.192 20.2687 103.455 20.364 102.606 20.364C101.635 20.364 100.751 20.208 99.9536 19.896C99.1562 19.584 98.4629 19.1333 97.8736 18.544C97.3016 17.9547 96.8509 17.2353 96.5216 16.386C96.2096 15.5367 96.0536 14.5747 96.0536 13.5V13.344C96.0536 12.356 96.2182 11.4547 96.5476 10.64C96.8942 9.82535 97.3622 9.13201 97.9516 8.56001C98.5409 7.98801 99.2256 7.54601 100.006 7.23401C100.803 6.90468 101.652 6.74001 102.554 6.74001C103.663 6.74001 104.616 6.93934 105.414 7.33801C106.211 7.71934 106.87 8.21334 107.39 8.82001C107.91 9.40935 108.291 10.068 108.534 10.796C108.776 11.5067 108.898 12.2 108.898 12.876V14.618H99.4336ZM102.528 9.70401C101.696 9.70401 101.02 9.92068 100.5 10.354C99.9796 10.77 99.6416 11.2553 99.4856 11.81H105.57C105.466 11.2033 105.136 10.7007 104.582 10.302C104.044 9.90335 103.36 9.70401 102.528 9.70401Z" fill="white"/>
<path d="M111.843 7.10401H117.303V8.97601H117.771C118.014 8.26535 118.421 7.71934 118.993 7.33801C119.583 6.93934 120.285 6.74001 121.1 6.74001C122.382 6.74001 123.413 7.14735 124.193 7.96201C124.973 8.75935 125.364 9.98134 125.364 11.628V12.2L121.983 12.512V12.148C121.983 11.4373 121.802 10.874 121.438 10.458C121.074 10.0247 120.527 9.80801 119.799 9.80801C119.071 9.80801 118.499 10.0593 118.083 10.562C117.667 11.0647 117.459 11.784 117.459 12.72V16.88H120.424V20H111.532V16.88H114.184V10.224H111.843V7.10401Z" fill="white"/>
</svg>
